<?xml version="1.0"?>
<svg xmlns="http://www.w3.org/2000/svg" xmlns:xlink="http://www.w3.org/1999/xlink" version="1.1" id="Capa_1" x="0px" y="0px" viewBox="0 0 60 60" style="enable-background:new 0 0 60 60;" xml:space="preserve" width="20px" height="20px"><g><g>
	<path d="M54.07,1H15.93C12.66,1,10,3.66,10,6.93V15H5.93C2.66,15,0,17.66,0,20.929V42.07C0,45.34,2.66,48,5.93,48H12v10   c0,0.413,0.254,0.784,0.64,0.933C12.757,58.978,12.879,59,13,59c0.276,0,0.547-0.115,0.74-0.327L23.442,48H44.07   c3.27,0,5.93-2.66,5.93-5.93V34h4.07c3.27,0,5.93-2.66,5.93-5.93V6.93C60,3.66,57.34,1,54.07,1z M48,42.07   c0,2.167-1.763,3.93-3.93,3.93H23c-0.282,0-0.551,0.119-0.74,0.327L14,55.414V47c0-0.552-0.447-1-1-1H5.93   C3.763,46,2,44.237,2,42.07V20.929C2,18.763,3.763,17,5.93,17H11h33.07c0.813,0,1.568,0.248,2.196,0.672   C47.311,18.379,48,19.575,48,20.93V33V42.07z M58,28.07c0,2.167-1.763,3.93-3.93,3.93H50V20.93v0c0-2.656-1.756-4.91-4.168-5.662   c-0.186-0.058-0.375-0.107-0.568-0.146C44.878,15.042,44.479,15,44.07,15H12V6.93C12,4.763,13.763,3,15.93,3H54.07   C56.237,3,58,4.763,58,6.93V28.07z" data-original="#000000" class="active-path" fill="#000000"/>
	<path d="M12,27.015h14c0.553,0,1-0.448,1-1s-0.447-1-1-1H12c-0.553,0-1,0.448-1,1S11.447,27.015,12,27.015z" data-original="#000000" class="active-path" fill="#000000"/>
	<path d="M39,31.015H12c-0.553,0-1,0.448-1,1s0.447,1,1,1h27c0.553,0,1-0.448,1-1S39.553,31.015,39,31.015z" data-original="#000000" class="active-path" fill="#000000"/>
	<path d="M39,37.015H12c-0.553,0-1,0.448-1,1s0.447,1,1,1h27c0.553,0,1-0.448,1-1S39.553,37.015,39,37.015z" data-original="#000000" class="active-path" fill="#000000"/>
</g></g> </svg>
