<?xml version="1.0"?>
<svg xmlns="http://www.w3.org/2000/svg" height="20px" viewBox="0 0 477 477.82301" width="20px" class=""><g><path d="m162.367188 244.457031c-.003907-2.125-.851563-4.164062-2.363282-5.664062l-63.199218-63.199219c-21.871094-21.871094-21.871094-57.328125 0-79.199219 21.871093-21.871093 57.332031-21.871093 79.199218 0l63.203125 63.199219c3.121094 3.125 8.1875 3.125 11.3125 0l45.253907-45.253906c3.125-3.125 3.125-8.191406 0-11.3125l-63.199219-63.203125c-53.117188-53.105469-139.230469-53.097657-192.335938.019531-53.109375 53.113281-53.101562 139.226562.015625 192.335938l63.199219 63.199218c3.125 3.121094 8.1875 3.121094 11.3125 0l45.265625-45.257812c1.496094-1.503906 2.339844-3.539063 2.335938-5.664063zm82.503906-101.816406-28.289063-28.285156 33.945313-33.9375 28.285156 28.289062zm-228.464844-6.628906c-.003906-48.542969 29.234375-92.300781 74.082031-110.875 44.84375-18.574219 96.464844-8.300781 130.78125 26.023437l17.945313 17.945313-33.945313 33.9375-17.9375-17.9375c-28.117187-28.117188-73.703125-28.117188-101.824219 0-28.117187 28.117187-28.117187 73.707031 0 101.824219l17.945313 17.9375-33.945313 33.941406-17.941406-17.941406c-22.585937-22.453126-35.246094-53.011719-35.160156-84.855469zm92.703125 142.398437-28.28125-28.289062 33.945313-33.941406 28.289062 28.285156zm0 0" data-original="#000000" class="active-path" data-old_color="#000000" fill="#BABABA"/><path d="m438.078125 245.339844-63.199219-63.203125c-3.175781-3-8.140625-3-11.3125 0l-45.25 45.257812c-3.121094 3.125-3.121094 8.1875 0 11.3125l63.203125 63.199219c21.867188 21.871094 21.867188 57.328125 0 79.199219-21.871093 21.871093-57.332031 21.871093-79.203125 0l-63.199218-63.199219c-3.121094-3.113281-8.171876-3.113281-11.296876 0l-45.269531 45.253906c-3.125 3.125-3.125 8.191406 0 11.3125l63.199219 63.203125c34.320312 34.542969 84.488281 48.101563 131.539062 35.550781 47.046876-12.550781 83.796876-49.300781 96.347657-96.351562s-1.011719-97.21875-35.558594-131.535156zm-68.855469-46.234375 28.285156 28.289062-33.941406 33.9375-28.28125-28.28125zm-135.769531 135.769531 28.289063 28.285156-33.9375 33.945313-28.296876-28.289063zm193.304687 91.480469c-46.851562 46.878906-122.84375 46.878906-169.695312 0l-17.945312-17.9375 33.9375-33.945313 17.941406 17.945313c28.121094 28.117187 73.707031 28.117187 101.824218 0 28.121094-28.117188 28.121094-73.707031 0-101.824219l-17.941406-17.945312 33.941406-33.933594 17.9375 17.941406c46.890626 46.847656 46.890626 122.851562 0 169.699219zm0 0" data-original="#000000" class="active-path" data-old_color="#000000" fill="#BABABA"/><path d="m280.25 155.164062 11.3125-11.3125 16 15.996094-11.316406 11.316406zm0 0" data-original="#000000" class="active-path" data-old_color="#000000" fill="#BABABA"/><path d="m304.253906 179.164062 11.316406-11.3125 15.996094 15.996094-11.3125 11.316406zm0 0" data-original="#000000" class="active-path" data-old_color="#000000" fill="#BABABA"/><path d="m264.25 171.160156 11.3125-11.3125 16 15.996094-11.316406 11.316406zm0 0" data-original="#000000" class="active-path" data-old_color="#000000" fill="#BABABA"/><path d="m288.253906 195.160156 11.316406-11.3125 15.996094 15.996094-11.3125 11.316406zm0 0" data-original="#000000" class="active-path" data-old_color="#000000" fill="#BABABA"/><path d="m296.25 139.164062 11.3125-11.316406 16 16-11.316406 11.3125zm0 0" data-original="#000000" class="active-path" data-old_color="#000000" fill="#BABABA"/><path d="m320.253906 163.164062 11.316406-11.316406 15.996094 16-11.3125 11.3125zm0 0" data-original="#000000" class="active-path" data-old_color="#000000" fill="#BABABA"/><path d="m144.25 291.164062 11.3125-11.316406 16 16-11.316406 11.3125zm0 0" data-original="#000000" class="active-path" data-old_color="#000000" fill="#BABABA"/><path d="m168.253906 315.164062 11.316406-11.316406 15.996094 16-11.3125 11.3125zm0 0" data-original="#000000" class="active-path" data-old_color="#000000" fill="#BABABA"/><path d="m128.25 307.167969 11.3125-11.316407 16 16-11.316406 11.3125zm0 0" data-original="#000000" class="active-path" data-old_color="#000000" fill="#BABABA"/><path d="m152.253906 331.167969 11.316406-11.316407 15.996094 16-11.3125 11.3125zm0 0" data-original="#000000" class="active-path" data-old_color="#000000" fill="#BABABA"/><path d="m160.25 275.167969 11.3125-11.3125 16 15.996093-11.316406 11.3125zm0 0" data-original="#000000" class="active-path" data-old_color="#000000" fill="#BABABA"/><path d="m184.253906 299.167969 11.316406-11.3125 15.996094 15.996093-11.3125 11.3125zm0 0" data-original="#000000" class="active-path" data-old_color="#000000" fill="#BABABA"/></g> </svg>
