<?xml version="1.0"?>
<svg xmlns="http://www.w3.org/2000/svg" xmlns:xlink="http://www.w3.org/1999/xlink" version="1.1" id="Capa_1" x="0px" y="0px" width="20px" height="20px" viewBox="0 0 612 612" style="enable-background:new 0 0 612 612;" xml:space="preserve"><g><g>
	<path d="M248.194,514.052c34.995,0,47.18,56.221,47.18,56.221H306h10.627c0,0,12.184-56.221,47.18-56.221   c34.995,0,223.713,0,223.713,0c13.521,0,24.48-11.016,24.48-24.591V97.364c0-55.636-55.637-55.636-55.637-55.636H341.969   C323.971,41.728,306,64.455,306,75.944v0.083c0-11.517-17.609-34.3-35.246-34.3H55.636c0,0-55.636,0-55.636,55.636v392.097   c0,13.575,10.96,24.592,24.452,24.592C24.452,514.052,213.199,514.052,248.194,514.052z M319.909,88.378   c0-10.404,8.317-18.833,18.415-18.833h232.505c6.815,0,12.352,5.619,12.379,12.546l0.974,393.906   c0.028,6.927-5.535,12.546-12.212,12.546c0,0-187.133,0-210.473,0c-23.395,0-41.588,26.094-41.588,26.094V88.378z M28.792,82.091   c0.028-6.927,5.563-12.546,12.379-12.546h232.504c10.098,0,18.416,8.429,18.416,18.833v426.258c0,0-18.221-26.094-41.56-26.094   c-23.368,0-210.473,0-210.473,0c-6.676,0-12.24-5.619-12.212-12.546L28.792,82.091z" data-original="#000000" class="active-path" fill="#000000"/>
</g></g> </svg>
