<?xml version="1.0"?>
<svg xmlns="http://www.w3.org/2000/svg" height="20px" viewBox="0 -32 512 511" width="20px"><g><path d="m504.964844 28.75-209.953125 209.953125c-10.757813 10.757813-24.882813 16.132813-39.011719 16.132813s-28.253906-5.375-39.007812-16.132813l-209.957032-209.953125c-4.46875 7.96875-7.035156 17.144531-7.035156 26.914062v337.402344c0 30.417969 24.746094 55.167969 55.167969 55.167969h401.667969c30.417968 0 55.164062-24.75 55.164062-55.167969v-337.402344c0-9.769531-2.566406-18.945312-7.035156-26.914062zm0 0" data-original="#000000" class="active-path" data-old_color="#000000" fill="#004CFF"/><path d="m273.796875 217.492188 209.953125-209.957032c-7.96875-4.472656-17.148438-7.035156-26.914062-7.035156h-401.667969c-9.769531 0-18.949219 2.5625-26.917969 7.035156l209.953125 209.957032c9.816406 9.8125 25.78125 9.8125 35.59375 0zm0 0" data-original="#000000" class="active-path" data-old_color="#000000" fill="#004CFF"/></g> </svg>
